<svg width="35" height="35" viewBox="0 0 35 35" fill="none" xmlns="http://www.w3.org/2000/svg">
<path d="M7.31758 1.45996C4.07272 1.45996 1.45996 4.07271 1.45996 7.31756V27.6823C1.45996 30.9272 4.07272 33.5399 7.31758 33.5399H18.3551V20.9987H15.0388V16.4834H18.3551V12.6258C18.3551 9.59505 20.3145 6.81231 24.8283 6.81231C26.6558 6.81231 28.0072 6.98775 28.0072 6.98775L27.9009 11.2043C27.9009 11.2043 26.5227 11.1912 25.0187 11.1912C23.391 11.1912 23.13 11.9412 23.13 13.1862V16.4834H28.0302L27.8167 20.9987H23.13V33.54H27.6823C30.9272 33.54 33.54 30.9272 33.54 27.6824V7.3176C33.54 4.07274 30.9272 1.45999 27.6823 1.45999L7.31758 1.45996Z" fill="white"/>
</svg>
