<svg width="35" height="35" viewBox="0 0 35 35" fill="none" xmlns="http://www.w3.org/2000/svg">
<path fill-rule="evenodd" clip-rule="evenodd" d="M10.8864 1.55475C12.597 1.476 13.1424 1.4585 17.4999 1.4585C21.8574 1.4585 22.4028 1.47745 24.112 1.55475C25.8212 1.63204 26.9878 1.90475 28.0087 2.29995C29.0776 2.70391 30.0474 3.33537 30.8495 4.15204C31.6662 4.95266 32.2962 5.921 32.6987 6.99141C33.0953 8.01225 33.3666 9.17891 33.4453 10.8852C33.5241 12.5987 33.5416 13.1441 33.5416 17.5002C33.5416 21.8577 33.5226 22.4031 33.4453 24.1137C33.368 25.82 33.0953 26.9866 32.6987 28.0075C32.2962 29.078 31.6651 30.048 30.8495 30.8497C30.0474 31.6664 29.0776 32.2964 28.0087 32.6989C26.9878 33.0956 25.8212 33.3668 24.1149 33.4456C22.4028 33.5243 21.8574 33.5418 17.4999 33.5418C13.1424 33.5418 12.597 33.5229 10.8864 33.4456C9.18013 33.3683 8.01346 33.0956 6.99263 32.6989C5.92209 32.2964 4.95216 31.6653 4.15034 30.8497C3.33422 30.0486 2.70267 29.0792 2.29971 28.0089C1.9045 26.9881 1.63325 25.8214 1.5545 24.1152C1.47575 22.4016 1.45825 21.8562 1.45825 17.5002C1.45825 13.1427 1.47721 12.5972 1.5545 10.8881C1.63179 9.17891 1.9045 8.01225 2.29971 6.99141C2.70326 5.92111 3.3353 4.95166 4.15179 4.15058C4.95248 3.33464 5.92144 2.7031 6.99117 2.29995C8.012 1.90475 9.17867 1.6335 10.8849 1.55475H10.8864ZM23.9822 4.44225C22.2905 4.36495 21.783 4.34891 17.4999 4.34891C13.2168 4.34891 12.7093 4.36495 11.0176 4.44225C9.45283 4.5137 8.60409 4.77475 8.03825 4.99495C7.29013 5.28662 6.75492 5.63225 6.19346 6.1937C5.66123 6.71149 5.25164 7.34182 4.99471 8.0385C4.7745 8.60433 4.51346 9.45308 4.442 11.0179C4.36471 12.7095 4.34867 13.217 4.34867 17.5002C4.34867 21.7833 4.36471 22.2908 4.442 23.9825C4.51346 25.5472 4.7745 26.396 4.99471 26.9618C5.25138 27.6575 5.66117 28.2889 6.19346 28.8066C6.71117 29.3389 7.34263 29.7487 8.03825 30.0054C8.60409 30.2256 9.45283 30.4866 11.0176 30.5581C12.7093 30.6354 13.2153 30.6514 17.4999 30.6514C21.7845 30.6514 22.2905 30.6354 23.9822 30.5581C25.547 30.4866 26.3958 30.2256 26.9616 30.0054C27.7097 29.7137 28.2449 29.3681 28.8064 28.8066C29.3387 28.2889 29.7485 27.6575 30.0051 26.9618C30.2253 26.396 30.4864 25.5472 30.5578 23.9825C30.6351 22.2908 30.6512 21.7833 30.6512 17.5002C30.6512 13.217 30.6351 12.7095 30.5578 11.0179C30.4864 9.45308 30.2253 8.60433 30.0051 8.0385C29.7135 7.29037 29.3678 6.75516 28.8064 6.1937C28.2886 5.66152 27.6582 5.25193 26.9616 4.99495C26.3958 4.77475 25.547 4.5137 23.9822 4.44225V4.44225ZM15.451 22.4454C16.5953 22.9217 17.8694 22.986 19.0559 22.6273C20.2423 22.2685 21.2674 21.509 21.956 20.4784C22.6447 19.4479 22.9542 18.2102 22.8317 16.9768C22.7091 15.7434 22.1622 14.5907 21.2843 13.7158C20.7246 13.1565 20.0479 12.7282 19.3029 12.4618C18.5579 12.1954 17.763 12.0976 16.9756 12.1752C16.1882 12.2529 15.4278 12.5042 14.7492 12.911C14.0706 13.3178 13.4906 13.87 13.051 14.5279C12.6114 15.1857 12.3231 15.9329 12.2069 16.7155C12.0907 17.4982 12.1495 18.2968 12.379 19.054C12.6086 19.8112 13.0031 20.5081 13.5343 21.0945C14.0655 21.681 14.7201 22.1423 15.451 22.4454ZM11.6695 11.6697C12.4352 10.9041 13.3441 10.2967 14.3445 9.88236C15.3449 9.46798 16.4171 9.25471 17.4999 9.25471C18.5827 9.25471 19.6549 9.46798 20.6553 9.88236C21.6557 10.2967 22.5647 10.9041 23.3303 11.6697C24.096 12.4354 24.7034 13.3444 25.1177 14.3448C25.5321 15.3451 25.7454 16.4174 25.7454 17.5002C25.7454 18.583 25.5321 19.6552 25.1177 20.6556C24.7034 21.6559 24.096 22.5649 23.3303 23.3306C21.784 24.8769 19.6867 25.7456 17.4999 25.7456C15.3131 25.7456 13.2158 24.8769 11.6695 23.3306C10.1232 21.7843 9.25446 19.687 9.25446 17.5002C9.25446 15.3133 10.1232 13.2161 11.6695 11.6697V11.6697ZM27.5741 10.4827C27.7638 10.3037 27.9157 10.0884 28.0208 9.84971C28.1258 9.61097 28.1819 9.35358 28.1857 9.09277C28.1895 8.83196 28.141 8.57304 28.0429 8.33134C27.9449 8.08964 27.7993 7.87007 27.6149 7.68564C27.4304 7.5012 27.2109 7.35564 26.9692 7.25758C26.7275 7.15953 26.4685 7.11096 26.2077 7.11476C25.9469 7.11856 25.6895 7.17466 25.4508 7.27972C25.212 7.38478 24.9968 7.53668 24.8178 7.72641C24.4697 8.09541 24.2792 8.58555 24.2866 9.09277C24.294 9.59999 24.4987 10.0844 24.8574 10.4431C25.2161 10.8018 25.7005 11.0065 26.2077 11.0139C26.7149 11.0213 27.2051 10.8308 27.5741 10.4827V10.4827Z" fill="white"/>
</svg>
