<?xml version="1.0" standalone="no"?>
<!DOCTYPE svg PUBLIC "-//W3C//DTD SVG 20010904//EN"
 "http://www.w3.org/TR/2001/REC-SVG-20010904/DTD/svg10.dtd">
<svg version="1.0" xmlns="http://www.w3.org/2000/svg"
 width="1280.000000pt" height="917.000000pt" viewBox="0 0 1280.000000 917.000000"
 preserveAspectRatio="xMidYMid meet">
<metadata>
Created by potrace 1.15, written by Peter Selinger 2001-2017
</metadata>
<g transform="translate(0.000000,917.000000) scale(0.100000,-0.100000)"
fill="#000000" stroke="none">
<path d="M8045 9164 c-233 -15 -490 -47 -725 -89 -74 -14 -212 -36 -307 -50
-95 -13 -286 -45 -425 -70 -929 -166 -1148 -192 -1578 -182 -322 7 -421 22
-775 117 -413 110 -596 139 -764 120 -201 -23 -331 -88 -486 -244 -215 -216
-344 -403 -615 -891 -131 -237 -231 -407 -290 -495 -20 -30 -58 -93 -85 -140
-170 -299 -601 -910 -760 -1079 l-63 -66 62 30 c80 39 156 104 279 240 195
217 316 393 644 940 326 541 327 543 393 665 239 438 518 806 709 934 l66 45
110 -18 c136 -23 266 -54 550 -132 500 -138 664 -159 1071 -140 412 19 682 54
1459 191 801 141 1079 179 1455 200 315 17 386 14 689 -30 805 -118 1175 -210
1509 -373 152 -74 544 -282 617 -326 337 -207 672 -518 930 -865 112 -151 395
-581 491 -746 157 -271 292 -586 348 -810 59 -238 57 -196 67 -1170 10 -902 7
-1235 -12 -1510 -31 -462 -110 -887 -209 -1130 -100 -246 -151 -543 -151 -875
0 -259 13 -357 78 -567 3 -10 9 -18 14 -18 14 0 65 110 85 185 24 88 26 337 5
625 -11 157 -11 215 -2 300 15 127 48 235 97 315 61 102 141 378 188 655 67
386 75 577 78 1795 3 1124 2 1139 -57 1429 -44 216 -85 326 -232 614 -75 147
-161 310 -191 362 -172 295 -430 643 -716 965 -240 271 -242 272 -422 391
-645 425 -1105 633 -1634 739 -63 13 -173 37 -245 54 -312 73 -552 101 -915
105 -151 2 -302 2 -335 0z"/>
<path d="M575 6130 c-149 -20 -302 -80 -410 -163 -58 -44 -135 -117 -123 -117
35 0 172 74 254 136 l47 36 156 -7 c182 -7 303 -21 347 -40 24 -10 43 -11 78
-3 104 22 218 -45 363 -214 142 -165 181 -204 222 -223 26 -11 49 -15 67 -11
30 8 94 72 94 94 0 22 -84 124 -159 194 -252 233 -622 359 -936 318z"/>
<path d="M4743 5905 l-53 -24 14 -39 c47 -132 109 -212 373 -486 117 -120 236
-252 265 -293 29 -41 80 -111 112 -156 33 -45 127 -150 210 -233 215 -215 363
-331 820 -639 202 -137 262 -172 323 -191 80 -26 152 -31 171 -12 58 58 -122
249 -283 298 -100 31 -337 177 -507 312 -204 162 -387 354 -748 783 -254 301
-382 444 -527 587 l-118 116 -52 -23z"/>
<path d="M185 5864 c-230 -116 -245 -412 -34 -664 137 -163 194 -261 248 -427
51 -157 65 -256 65 -468 0 -232 -15 -350 -95 -740 -61 -302 -68 -371 -49 -495
18 -115 72 -261 158 -430 300 -587 312 -614 348 -790 25 -125 16 -308 -21
-410 -48 -134 -57 -180 -53 -265 13 -227 187 -338 553 -352 265 -10 549 41
749 135 445 211 766 603 1057 1295 50 117 141 355 245 642 30 83 72 179 93
215 50 83 73 155 69 211 -3 39 -6 44 -30 47 -19 2 -38 -7 -68 -35 -74 -66
-114 -137 -163 -291 -152 -470 -372 -1005 -568 -1381 -49 -93 -95 -164 -153
-235 -94 -113 -248 -266 -316 -313 -122 -83 -269 -134 -440 -151 -58 -6 -161
-17 -230 -24 -189 -19 -324 -16 -381 9 -55 25 -111 79 -139 133 -48 95 -52
132 -60 565 -10 519 -12 531 -139 725 -127 194 -232 438 -280 650 -37 167 -46
253 -45 445 0 269 34 464 127 745 49 145 61 217 54 306 -13 148 -75 288 -245
554 -199 311 -246 422 -246 585 0 78 5 114 23 164 12 35 21 65 19 67 -2 1 -26
-9 -53 -22z"/>
<path d="M662 5581 c-87 -30 -151 -108 -176 -213 -6 -26 -5 -26 25 -18 17 5
50 20 73 34 44 26 136 118 136 136 0 17 81 -28 123 -69 22 -20 90 -106 152
-191 62 -85 125 -166 139 -179 l26 -25 36 35 c69 65 81 137 39 228 -66 142
-302 281 -475 281 -25 -1 -69 -9 -98 -19z"/>
<path d="M3242 5440 c-34 -17 -71 -44 -82 -60 -26 -37 -26 -102 1 -160 67
-144 133 -413 209 -845 126 -715 203 -952 417 -1275 270 -408 502 -846 763
-1440 117 -266 169 -353 253 -425 75 -65 103 -39 95 89 -10 145 -103 373 -193
474 -24 26 -55 77 -70 112 -175 420 -454 940 -762 1420 -65 101 -80 134 -128
282 -74 227 -138 493 -235 978 -76 378 -162 755 -192 843 l-14 38 -62 -31z"/>
<path d="M11302 5266 c-55 -27 -84 -48 -87 -61 -209 -954 -392 -1425 -703
-1812 -97 -120 -196 -213 -347 -328 -358 -271 -842 -781 -1025 -1079 -23 -38
-78 -117 -122 -175 -251 -329 -458 -696 -578 -1021 -42 -116 -102 -336 -115
-421 -7 -46 -6 -47 26 -58 52 -18 70 -13 110 29 49 51 75 134 129 405 46 229
79 336 121 395 16 23 75 116 131 208 212 351 432 669 642 932 275 344 577 650
766 776 444 295 750 779 970 1539 55 190 176 703 168 710 -2 2 -40 -16 -86
-39z"/>
<path d="M6155 3978 c-130 -66 -129 -60 -114 -376 12 -264 8 -725 -11 -1367
-5 -182 -11 -474 -12 -650 l-3 -319 28 -10 c57 -20 112 55 144 195 21 93 25
482 5 569 -10 43 -10 80 -1 165 8 82 32 1809 25 1822 -1 1 -28 -12 -61 -29z"/>
<path d="M11125 3776 c-260 -124 -415 -429 -415 -813 0 -108 4 -137 35 -250
19 -71 71 -292 115 -493 113 -509 153 -663 222 -865 45 -129 42 -125 80 -114
51 14 77 48 87 110 19 112 -8 237 -129 604 -171 520 -230 798 -230 1082 -1
310 72 520 244 700 38 40 67 73 64 73 -2 0 -35 -15 -73 -34z"/>
<path d="M7259 3750 c-61 -32 -116 -104 -129 -166 -7 -31 -9 -62 -6 -71 4 -8
-12 -70 -35 -137 -55 -163 -104 -375 -131 -571 l-22 -162 -54 -28 c-85 -45
-143 -119 -232 -298 -44 -87 -88 -170 -98 -185 -33 -46 -83 -153 -80 -169 9
-43 170 128 293 312 40 61 94 151 119 200 l45 90 -6 -230 c-3 -144 -1 -308 7
-440 8 -115 14 -282 15 -370 1 -171 6 -197 38 -232 39 -43 92 -27 131 40 49
83 52 188 12 382 -34 164 -41 262 -40 545 0 234 4 314 22 445 36 268 101 593
186 933 37 147 36 150 -35 112z"/>
<path d="M860 2782 c-63 -32 -96 -84 -81 -124 16 -44 143 -182 185 -202 47
-22 61 -20 97 12 60 54 49 175 -24 258 -32 36 -100 84 -120 84 -3 0 -28 -12
-57 -28z"/>
<path d="M4462 1628 c-109 -54 -153 -126 -168 -275 -5 -49 -3 -62 13 -82 19
-23 23 -24 51 -12 101 42 203 253 176 364 l-9 36 -63 -31z"/>
<path d="M10770 1203 c-92 -93 -124 -162 -118 -253 14 -189 237 -383 558 -485
100 -31 226 -55 293 -55 26 0 47 -4 47 -9 0 -16 234 -22 450 -11 297 15 406
33 380 65 -25 30 -113 43 -337 49 -569 16 -904 105 -1074 283 -99 103 -136
208 -125 354 3 48 10 98 16 113 17 45 -8 31 -90 -51z"/>
<path d="M4580 1141 c-74 -23 -184 -97 -195 -131 -4 -11 1 -45 9 -74 29 -99
138 -196 289 -258 189 -77 419 -113 667 -104 174 5 231 14 238 34 7 22 -70 44
-273 78 -110 19 -236 41 -280 50 -175 35 -337 101 -423 171 -39 32 -102 124
-102 148 0 6 23 25 50 43 28 17 50 37 50 42 0 6 -1 10 -2 9 -2 0 -14 -4 -28
-8z"/>
<path d="M6445 969 c-104 -14 -219 -46 -283 -78 -32 -16 -100 -68 -152 -116
-124 -113 -135 -126 -76 -81 27 20 53 36 57 36 5 0 8 5 7 11 -4 15 117 75 188
94 111 29 213 29 461 1 287 -33 431 -38 446 -15 31 48 -27 98 -153 131 -88 23
-378 33 -495 17z"/>
<path d="M6083 418 c-75 -78 -47 -138 100 -214 99 -51 259 -101 357 -113 621
-75 1167 -104 1540 -82 216 13 302 32 395 84 80 46 50 57 -120 45 -60 -4 -176
-17 -256 -28 -138 -20 -152 -20 -250 -6 -101 15 -246 24 -681 46 -114 6 -245
15 -290 21 -277 33 -500 108 -680 229 -42 27 -78 50 -80 50 -2 0 -18 -15 -35
-32z"/>
</g>
</svg>
