<svg width="30" height="30" viewBox="0 0 30 30" fill="none" xmlns="http://www.w3.org/2000/svg">
<path d="M23.2232 16.2471C23.0767 16.1004 22.9028 15.984 22.7113 15.9046C22.5198 15.8252 22.3145 15.7843 22.1072 15.7843C21.8999 15.7843 21.6946 15.8252 21.5031 15.9046C21.3116 15.984 21.1377 16.1004 20.9912 16.2471L18.4751 18.7631C17.3086 18.4159 15.1318 17.6267 13.7522 16.2471C12.3726 14.8676 11.5834 12.6909 11.2361 11.5245L13.7522 9.00843C13.8989 8.86197 14.0153 8.68802 14.0947 8.49653C14.1742 8.30505 14.215 8.09978 14.215 7.89248C14.215 7.68518 14.1742 7.47991 14.0947 7.28842C14.0153 7.09694 13.8989 6.92299 13.7522 6.77653L7.43822 0.462798C7.29176 0.31609 7.1178 0.199699 6.9263 0.120287C6.73481 0.0408752 6.52953 0 6.32222 0C6.11491 0 5.90964 0.0408752 5.71814 0.120287C5.52665 0.199699 5.35269 0.31609 5.20623 0.462798L0.925342 4.74351C0.325513 5.34331 -0.0122862 6.16725 0.000341815 7.00856C0.0366473 9.25624 0.631741 17.0632 6.78472 23.2159C12.9377 29.3686 20.745 29.9621 22.9943 30H23.0385C23.872 30 24.6596 29.6717 25.2563 29.075L29.5372 24.7943C29.6839 24.6479 29.8003 24.4739 29.8797 24.2824C29.9591 24.0909 30 23.8857 30 23.6784C30 23.4711 29.9591 23.2658 29.8797 23.0743C29.8003 22.8828 29.6839 22.7089 29.5372 22.5624L23.2232 16.2471ZM23.0227 26.8416C21.0528 26.8084 14.3126 26.2796 9.01672 20.9824C3.7035 15.6694 3.18891 8.90583 3.15734 6.97541L6.32222 3.81065L10.4042 7.89248L8.36322 9.93339C8.17769 10.1188 8.04127 10.3475 7.96631 10.5988C7.89135 10.8501 7.8802 11.1162 7.93387 11.3729C7.97175 11.5544 8.89833 15.8588 11.5186 18.479C14.1389 21.0992 18.4435 22.0258 18.625 22.0636C18.8816 22.1188 19.1479 22.1086 19.3995 22.0338C19.6511 21.9591 19.8798 21.8222 20.0646 21.6359L22.1072 19.595L26.1892 23.6768L23.0227 26.8416V26.8416Z" fill="white"/>
</svg>
