<svg width="35" height="35" viewBox="0 0 35 35" fill="none" xmlns="http://www.w3.org/2000/svg">
<path d="M28.1933 11.5267C27.4136 11.8748 26.5712 12.1115 25.6662 12.2368C26.613 11.6799 27.2604 10.8654 27.6085 9.79324C26.7035 10.3223 25.7706 10.6774 24.8099 10.8584C23.9605 9.93944 22.8954 9.47996 21.6144 9.47996C20.403 9.47996 19.3692 9.90811 18.5129 10.7644C17.6566 11.6207 17.2285 12.6545 17.2285 13.8659C17.2285 14.2697 17.2633 14.6039 17.3329 14.8684C15.5367 14.7709 13.852 14.3184 12.2786 13.5108C10.7052 12.7033 9.36857 11.6242 8.26861 10.2736C7.86482 10.9698 7.66293 11.7077 7.66293 12.4875C7.66293 14.0748 8.29645 15.2931 9.5635 16.1424C8.90909 16.1285 8.21291 15.9475 7.47496 15.5994V15.6412C7.47496 16.6854 7.82305 17.6148 8.51923 18.4294C9.21541 19.2439 10.0717 19.7486 11.0881 19.9436C10.6844 20.0549 10.3293 20.1106 10.023 20.1106C9.84198 20.1106 9.57047 20.0828 9.20845 20.0271C9.50085 20.9043 10.0195 21.6283 10.7644 22.1992C11.5093 22.77 12.3552 23.0624 13.302 23.0764C11.6869 24.3295 9.86982 24.9561 7.8509 24.9561C7.48888 24.9561 7.14079 24.9352 6.80663 24.8934C8.86732 26.2022 11.109 26.8566 13.5317 26.8566C15.0912 26.8566 16.5532 26.6095 17.9177 26.1152C19.2822 25.6209 20.4518 24.9595 21.4264 24.1311C22.4011 23.3026 23.24 22.3489 23.9431 21.2698C24.6463 20.1907 25.1684 19.0629 25.5095 17.8863C25.8506 16.7098 26.0212 15.5367 26.0212 14.3671C26.0212 14.1165 26.0143 13.9286 26.0003 13.8032C26.8775 13.1767 27.6085 12.4178 28.1933 11.5267ZM33.54 7.47496V27.525C33.54 29.1819 32.9517 30.5986 31.7751 31.7751C30.5986 32.9517 29.1819 33.54 27.525 33.54H7.47496C5.81805 33.54 4.40132 32.9517 3.22478 31.7751C2.04823 30.5986 1.45996 29.1819 1.45996 27.525V7.47496C1.45996 5.81805 2.04823 4.40132 3.22478 3.22478C4.40132 2.04823 5.81805 1.45996 7.47496 1.45996H27.525C29.1819 1.45996 30.5986 2.04823 31.7751 3.22478C32.9517 4.40132 33.54 5.81805 33.54 7.47496Z" fill="white"/>
</svg>
