<?xml version="1.0" standalone="no"?>
<!DOCTYPE svg PUBLIC "-//W3C//DTD SVG 20010904//EN"
 "http://www.w3.org/TR/2001/REC-SVG-20010904/DTD/svg10.dtd">
<svg version="1.0" xmlns="http://www.w3.org/2000/svg"
 width="398.000000pt" height="160.000000pt" viewBox="0 0 398.000000 160.000000"
 preserveAspectRatio="xMidYMid meet">
<metadata>
Created by potrace 1.16, written by Peter Selinger 2001-2019
</metadata>
<g transform="translate(0.000000,160.000000) scale(0.100000,-0.100000)"
fill="#000000" stroke="none">
<path d="M1265 1493 c-11 -3 -32 -14 -47 -24 -20 -15 -44 -19 -104 -19 l-77 0
-37 -40 -37 -40 -113 0 -113 0 6 -70 c6 -68 32 -150 49 -150 4 0 8 -6 8 -14 0
-12 113 -126 125 -126 3 0 24 -12 48 -27 42 -26 120 -60 207 -89 96 -33 95
-32 124 -118 40 -123 56 -209 56 -300 0 -91 -8 -107 -65 -120 -51 -12 -113
-58 -130 -96 -10 -21 -15 -55 -13 -81 l3 -44 208 -3 207 -2 53 40 c28 22 67
52 85 66 l33 27 37 -35 c69 -67 156 -91 240 -69 72 20 142 96 142 155 0 34
-46 86 -76 86 -13 0 -24 3 -24 8 0 4 46 7 103 7 56 0 126 3 155 7 46 6 52 4
52 -11 0 -24 -28 -48 -65 -56 -45 -11 -109 -54 -124 -84 -7 -14 -15 -52 -18
-83 l-6 -58 166 0 c164 0 166 0 169 -22 3 -22 7 -23 133 -26 72 -2 172 0 224
3 92 7 96 8 130 44 39 39 61 80 84 151 33 103 41 168 41 355 0 244 -19 341
-96 493 -89 176 -241 300 -428 349 -141 37 -300 25 -474 -36 -48 -17 -83 -21
-185 -21 -69 1 -146 5 -171 10 -25 5 -115 12 -200 16 -124 6 -160 11 -180 25
-28 20 -75 29 -105 22z m61 -108 c16 -25 18 -25 158 -25 77 0 178 -6 222 -14
45 -7 142 -14 216 -15 119 -2 142 0 208 22 108 36 210 57 275 57 173 0 374
-96 458 -219 17 -25 33 -48 36 -51 8 -7 39 -73 74 -160 49 -120 63 -411 28
-576 -19 -92 -59 -192 -85 -213 -10 -9 -68 -14 -173 -17 -87 -2 -151 -1 -143
2 8 4 17 10 20 14 11 15 77 43 115 49 39 6 40 7 40 44 0 41 -2 43 -98 86 -51
22 -137 95 -137 116 0 7 -7 18 -15 25 -8 7 -15 21 -15 32 0 26 -23 32 -62 15
-107 -46 -140 -51 -308 -52 l-165 0 -3 -60 c-3 -43 2 -69 14 -93 17 -32 53
-50 73 -37 15 8 13 -6 -2 -25 -24 -31 -62 -50 -100 -50 -73 0 -146 67 -222
205 -35 63 -110 191 -115 195 -3 3 -25 30 -49 60 -117 145 -213 224 -321 265
-41 15 -88 33 -105 40 -16 7 -46 18 -65 25 -19 7 -42 19 -51 27 -8 7 -19 13
-23 13 -10 0 -78 51 -98 75 -10 11 -27 34 -39 52 -19 30 -19 33 -3 58 14 22
23 25 75 25 54 0 61 3 99 40 l41 40 89 0 c56 0 90 4 90 10 0 15 23 39 37 40 7
0 20 -11 29 -25z m127 -689 c54 -60 117 -141 117 -151 0 -2 17 -33 38 -67 20
-35 46 -80 56 -101 22 -43 25 -38 -64 -107 -25 -19 -46 -38 -48 -42 -2 -5 -72
-8 -155 -8 -140 0 -150 1 -135 16 9 9 40 25 69 35 98 35 119 72 119 217 0 55
-7 123 -15 155 -22 87 -20 94 18 53z m1119 -376 c5 0 16 -7 24 -15 13 -12 11
-16 -13 -29 -16 -7 -37 -23 -47 -35 -18 -19 -30 -21 -149 -21 -129 0 -130 0
-112 20 10 11 24 20 31 20 64 0 154 83 154 142 0 29 1 29 51 -26 28 -31 55
-56 61 -56z"/>
</g>
</svg>
