<?xml version="1.0" encoding="UTF-8" standalone="no"?>
<svg
   version="1.0"
   width="237pt"
   height="141pt"
   viewBox="0 0 237 141"
   preserveAspectRatio="xMidYMid meet"
   id="svg8"
   sodipodi:docname="bear2.svg"
   inkscape:version="1.1.1 (3bf5ae0d25, 2021-09-20)"
   xmlns:inkscape="http://www.inkscape.org/namespaces/inkscape"
   xmlns:sodipodi="http://sodipodi.sourceforge.net/DTD/sodipodi-0.dtd"
   xmlns="http://www.w3.org/2000/svg"
   xmlns:svg="http://www.w3.org/2000/svg">
  <defs
     id="defs12">
    <linearGradient
       id="linearGradient2953"
       inkscape:swatch="solid">
      <stop
         style="stop-color:#000000;stop-opacity:1;"
         offset="0"
         id="stop2951" />
    </linearGradient>
    <linearGradient
       id="linearGradient985"
       inkscape:swatch="solid">
      <stop
         style="stop-color:#877900;stop-opacity:1;"
         offset="0"
         id="stop983" />
    </linearGradient>
    <linearGradient
       id="linearGradient960"
       inkscape:swatch="solid">
      <stop
         style="stop-color:#000000;stop-opacity:1;"
         offset="0"
         id="stop958" />
    </linearGradient>
  </defs>
  <sodipodi:namedview
     id="namedview10"
     pagecolor="#ffffff"
     bordercolor="#666666"
     borderopacity="1.0"
     inkscape:pageshadow="2"
     inkscape:pageopacity="0.0"
     inkscape:pagecheckerboard="0"
     inkscape:document-units="pt"
     showgrid="false"
     inkscape:zoom="2.0144472"
     inkscape:cx="155.12941"
     inkscape:cy="121.86966"
     inkscape:window-width="1600"
     inkscape:window-height="837"
     inkscape:window-x="-8"
     inkscape:window-y="-8"
     inkscape:window-maximized="1"
     inkscape:current-layer="svg8"
     width="397pt" />
  <metadata
     id="metadata2">
Created by potrace 1.16, written by Peter Selinger 2001-2019
</metadata>
  <g
     id="g12"
     transform="translate(-72.972877,-11.169317)">
    <g
       transform="matrix(0.1,0,0,-0.09909188,0,159.92627)"
       fill="#000000"
       stroke="none"
       id="g6">
      <path
         d="m 1265,1493 c -11,-3 -32,-14 -47,-24 -20,-15 -44,-19 -104,-19 h -77 l -37,-40 -37,-40 H 850 737 l 6,-70 c 6,-68 32,-150 49,-150 4,0 8,-6 8,-14 0,-12 113,-126 125,-126 3,0 24,-12 48,-27 42,-26 120,-60 207,-89 96,-33 95,-32 124,-118 40,-123 56,-209 56,-300 0,-91 -8,-107 -65,-120 -51,-12 -113,-58 -130,-96 -10,-21 -15,-55 -13,-81 l 3,-44 208,-3 207,-2 53,40 c 28,22 67,52 85,66 l 33,27 37,-35 c 69,-67 156,-91 240,-69 72,20 142,96 142,155 0,34 -46,86 -76,86 -13,0 -24,3 -24,8 0,4 46,7 103,7 56,0 126,3 155,7 46,6 52,4 52,-11 0,-24 -28,-48 -65,-56 -45,-11 -109,-54 -124,-84 -7,-14 -15,-52 -18,-83 l -6,-58 h 166 c 164,0 166,0 169,-22 3,-22 7,-23 133,-26 72,-2 172,0 224,3 92,7 96,8 130,44 39,39 61,80 84,151 33,103 41,168 41,355 0,244 -19,341 -96,493 -89,176 -241,300 -428,349 -141,37 -300,25 -474,-36 -48,-17 -83,-21 -185,-21 -69,1 -146,5 -171,10 -25,5 -115,12 -200,16 -124,6 -160,11 -180,25 -28,20 -75,29 -105,22 z m 61,-108 c 16,-25 18,-25 158,-25 77,0 178,-6 222,-14 45,-7 142,-14 216,-15 119,-2 142,0 208,22 108,36 210,57 275,57 173,0 374,-96 458,-219 17,-25 33,-48 36,-51 8,-7 39,-73 74,-160 49,-120 63,-411 28,-576 -19,-92 -59,-192 -85,-213 -10,-9 -68,-14 -173,-17 -87,-2 -151,-1 -143,2 8,4 17,10 20,14 11,15 77,43 115,49 39,6 40,7 40,44 0,41 -2,43 -98,86 -51,22 -137,95 -137,116 0,7 -7,18 -15,25 -8,7 -15,21 -15,32 0,26 -23,32 -62,15 -107,-46 -140,-51 -308,-52 h -165 l -3,-60 c -3,-43 2,-69 14,-93 17,-32 53,-50 73,-37 15,8 13,-6 -2,-25 -24,-31 -62,-50 -100,-50 -73,0 -146,67 -222,205 -35,63 -110,191 -115,195 -3,3 -25,30 -49,60 -117,145 -213,224 -321,265 -41,15 -88,33 -105,40 -16,7 -46,18 -65,25 -19,7 -42,19 -51,27 -8,7 -19,13 -23,13 -10,0 -78,51 -98,75 -10,11 -27,34 -39,52 -19,30 -19,33 -3,58 14,22 23,25 75,25 54,0 61,3 99,40 l 41,40 h 89 c 56,0 90,4 90,10 0,15 23,39 37,40 7,0 20,-11 29,-25 z m 127,-689 c 54,-60 117,-141 117,-151 0,-2 17,-33 38,-67 20,-35 46,-80 56,-101 22,-43 25,-38 -64,-107 -25,-19 -46,-38 -48,-42 -2,-5 -72,-8 -155,-8 -140,0 -150,1 -135,16 9,9 40,25 69,35 98,35 119,72 119,217 0,55 -7,123 -15,155 -22,87 -20,94 18,53 z M 2572,320 c 5,0 16,-7 24,-15 13,-12 11,-16 -13,-29 -16,-7 -37,-23 -47,-35 -18,-19 -30,-21 -149,-21 -129,0 -130,0 -112,20 10,11 24,20 31,20 64,0 154,83 154,142 0,29 1,29 51,-26 28,-31 55,-56 61,-56 z"
         id="path4"
         style="" />
    </g>
    <ellipse
       style="fill:#000000;fill-rule:evenodd;stroke-width:0.746587"
       id="path80"
       cx="117.65013"
       cy="36.796494"
       rx="2.606174"
       ry="2.398042" />
  </g>
</svg>
