<svg width="30" height="30" viewBox="0 0 30 30" fill="none" xmlns="http://www.w3.org/2000/svg">
<path d="M29.1705 5.17575L20.1705 0.176178C19.9621 0.0603205 19.7323 0 19.4993 0C19.2662 0 19.0364 0.0603205 18.828 0.176178L10.5 4.80412L2.1705 0.176178C1.94176 0.0491846 1.68759 -0.0107308 1.43213 0.00212294C1.17668 0.0149767 0.928429 0.100173 0.710954 0.249619C0.493478 0.399066 0.314001 0.607801 0.189569 0.855998C0.0651365 1.1042 -0.000119025 1.38362 1.62977e-07 1.66772V23.3325C1.62977e-07 23.9641 0.321 24.5408 0.8295 24.8241L9.8295 29.8236C10.0379 29.9395 10.2677 29.9998 10.5007 29.9998C10.7338 29.9998 10.9636 29.9395 11.172 29.8236L19.5 25.1957L27.8295 29.822C28.0576 29.9502 28.3116 30.0109 28.567 29.9984C28.8223 29.9858 29.0705 29.9004 29.2875 29.7503C29.73 29.4453 30 28.9104 30 28.3321V6.66729C30 6.03568 29.679 5.45906 29.1705 5.17575V5.17575ZM12 7.6972L18 4.36415V22.3026L12 25.6357V7.6972ZM3 4.36415L9 7.6972V25.6357L3 22.3026V4.36415ZM27 25.6357L21 22.3026V4.36415L27 7.6972V25.6357Z" fill="white"/>
</svg>
